<svg xmlns="http://www.w3.org/2000/svg">
  <defs>

    <!-- React -->
    <symbol id="react" viewBox="0 0 32 32">
      <svg viewBox="0 0 32 32" fill="none" xmlns="http://www.w3.org/2000/svg"><g id="SVGRepo_bgCarrier" stroke-width="0"></g><g id="SVGRepo_tracerCarrier" stroke-linecap="round" stroke-linejoin="round"></g><g id="SVGRepo_iconCarrier"> <path d="M18.6789 15.9759C18.6789 14.5415 17.4796 13.3785 16 13.3785C14.5206 13.3785 13.3211 14.5415 13.3211 15.9759C13.3211 17.4105 14.5206 18.5734 16 18.5734C17.4796 18.5734 18.6789 17.4105 18.6789 15.9759Z" fill="#53C1DE"></path> <path fill-rule="evenodd" clip-rule="evenodd" d="M24.7004 11.1537C25.2661 8.92478 25.9772 4.79148 23.4704 3.39016C20.9753 1.99495 17.7284 4.66843 16.0139 6.27318C14.3044 4.68442 10.9663 2.02237 8.46163 3.42814C5.96751 4.82803 6.73664 8.8928 7.3149 11.1357C4.98831 11.7764 1 13.1564 1 15.9759C1 18.7874 4.98416 20.2888 7.29698 20.9289C6.71658 23.1842 5.98596 27.1909 8.48327 28.5877C10.9973 29.9932 14.325 27.3945 16.0554 25.7722C17.7809 27.3864 20.9966 30.0021 23.4922 28.6014C25.9956 27.1963 25.3436 23.1184 24.7653 20.8625C27.0073 20.221 31 18.7523 31 15.9759C31 13.1835 26.9903 11.7923 24.7004 11.1537ZM24.4162 19.667C24.0365 18.5016 23.524 17.2623 22.8971 15.9821C23.4955 14.7321 23.9881 13.5088 24.3572 12.3509C26.0359 12.8228 29.7185 13.9013 29.7185 15.9759C29.7185 18.07 26.1846 19.1587 24.4162 19.667ZM22.85 27.526C20.988 28.571 18.2221 26.0696 16.9478 24.8809C17.7932 23.9844 18.638 22.9422 19.4625 21.7849C20.9129 21.6602 22.283 21.4562 23.5256 21.1777C23.9326 22.7734 24.7202 26.4763 22.85 27.526ZM9.12362 27.5111C7.26143 26.47 8.11258 22.8946 8.53957 21.2333C9.76834 21.4969 11.1286 21.6865 12.5824 21.8008C13.4123 22.9332 14.2816 23.9741 15.1576 24.8857C14.0753 25.9008 10.9945 28.557 9.12362 27.5111ZM2.28149 15.9759C2.28149 13.874 5.94207 12.8033 7.65904 12.3326C8.03451 13.5165 8.52695 14.7544 9.12123 16.0062C8.51925 17.2766 8.01977 18.5341 7.64085 19.732C6.00369 19.2776 2.28149 18.0791 2.28149 15.9759ZM9.1037 4.50354C10.9735 3.45416 13.8747 6.00983 15.1159 7.16013C14.2444 8.06754 13.3831 9.1006 12.5603 10.2265C11.1494 10.3533 9.79875 10.5569 8.55709 10.8297C8.09125 9.02071 7.23592 5.55179 9.1037 4.50354ZM20.3793 11.5771C21.3365 11.6942 22.2536 11.85 23.1147 12.0406C22.8562 12.844 22.534 13.6841 22.1545 14.5453C21.6044 13.5333 21.0139 12.5416 20.3793 11.5771ZM16.0143 8.0481C16.6054 8.66897 17.1974 9.3623 17.7798 10.1145C16.5985 10.0603 15.4153 10.0601 14.234 10.1137C14.8169 9.36848 15.414 8.67618 16.0143 8.0481ZM9.8565 14.5444C9.48329 13.6862 9.16398 12.8424 8.90322 12.0275C9.75918 11.8418 10.672 11.69 11.623 11.5748C10.9866 12.5372 10.3971 13.5285 9.8565 14.5444ZM11.6503 20.4657C10.6679 20.3594 9.74126 20.2153 8.88556 20.0347C9.15044 19.2055 9.47678 18.3435 9.85796 17.4668C10.406 18.4933 11.0045 19.4942 11.6503 20.4657ZM16.0498 23.9915C15.4424 23.356 14.8365 22.6531 14.2448 21.8971C15.4328 21.9423 16.6231 21.9424 17.811 21.891C17.2268 22.6608 16.6369 23.3647 16.0498 23.9915ZM22.1667 17.4222C22.5677 18.3084 22.9057 19.1657 23.1742 19.9809C22.3043 20.1734 21.3652 20.3284 20.3757 20.4435C21.015 19.4607 21.6149 18.4536 22.1667 17.4222ZM18.7473 20.5941C16.9301 20.72 15.1016 20.7186 13.2838 20.6044C12.2509 19.1415 11.3314 17.603 10.5377 16.0058C11.3276 14.4119 12.2404 12.8764 13.2684 11.4158C15.0875 11.2825 16.9178 11.2821 18.7369 11.4166C19.7561 12.8771 20.6675 14.4086 21.4757 15.9881C20.6771 17.5812 19.7595 19.1198 18.7473 20.5941ZM22.8303 4.4666C24.7006 5.51254 23.8681 9.22726 23.4595 10.8426C22.2149 10.5641 20.8633 10.3569 19.4483 10.2281C18.6239 9.09004 17.7698 8.05518 16.9124 7.15949C18.1695 5.98441 20.9781 3.43089 22.8303 4.4666Z" fill="#53C1DE"></path> </g></svg>
    </symbol> 

    <!-- React router -->
    <symbol id="react-router" viewBox="0 0 32 32">
      <svg viewBox="0 -58 256 256" version="1.1" xmlns="http://www.w3.org/2000/svg" xmlns:xlink="http://www.w3.org/1999/xlink" preserveAspectRatio="xMidYMid" fill="#000000"><g id="SVGRepo_bgCarrier" stroke-width="0"></g><g id="SVGRepo_tracerCarrier" stroke-linecap="round" stroke-linejoin="round"></g><g id="SVGRepo_iconCarrier"> <g> <path d="M78.0659341,92.5875806 C90.8837956,92.5875806 101.274726,82.1966508 101.274726,69.3787894 C101.274726,56.5609279 90.8837956,46.1699982 78.0659341,46.1699982 C65.2480726,46.1699982 54.8571429,56.5609279 54.8571429,69.3787894 C54.8571429,82.1966508 65.2480726,92.5875806 78.0659341,92.5875806 Z M23.2087913,139.005163 C36.0266526,139.005163 46.4175825,128.614233 46.4175825,115.796372 C46.4175825,102.97851 36.0266526,92.5875806 23.2087913,92.5875806 C10.3909298,92.5875806 0,102.97851 0,115.796372 C0,128.614233 10.3909298,139.005163 23.2087913,139.005163 Z M232.791209,139.005163 C245.60907,139.005163 256,128.614233 256,115.796372 C256,102.97851 245.60907,92.5875806 232.791209,92.5875806 C219.973347,92.5875806 209.582418,102.97851 209.582418,115.796372 C209.582418,128.614233 219.973347,139.005163 232.791209,139.005163 Z" fill="#000000"> </path> <path d="M156.565464,70.3568084 C155.823426,62.6028163 155.445577,56.1490255 149.505494,51.6131676 C141.982638,45.8687002 133.461166,49.5960243 122.964463,45.8072968 C112.650326,43.3121427 105,34.1545727 105,23.2394367 C105,10.4046502 115.577888,0 128.626373,0 C138.29063,0 146.599638,5.70747659 150.259573,13.8825477 C155.861013,24.5221258 152.220489,35.3500418 159.258242,40.8041273 C167.591489,47.2621895 178.826167,42.5329154 191.362109,48.6517412 C195.390112,50.5026944 198.799584,53.4384578 201.202056,57.0769224 C203.604528,60.7153869 205,65.0565524 205,69.7183101 C205,80.633446 197.349674,89.7910161 187.035538,92.2861702 C176.538834,96.0748977 168.017363,92.3475736 160.494506,98.092041 C152.03503,104.551712 156.563892,115.358642 149.669352,126.774447 C145.756163,134.291567 137.802119,139.43662 128.626373,139.43662 C115.577888,139.43662 105,129.03197 105,116.197184 C105,106.873668 110.581887,98.832521 118.637891,95.1306146 C131.173833,89.0117889 142.408511,93.7410629 150.741758,87.2830007 C155.549106,83.5574243 156.565464,77.8102648 156.565464,70.3568084 Z" fill="#D0021B"> </path> </g> </g></svg>
    </symbol> 

    <!-- Redux -->
    <symbol id="redux" viewBox="0 0 32 32">
      <svg viewBox="0 0 32 32" fill="none" xmlns="http://www.w3.org/2000/svg"><g id="SVGRepo_bgCarrier" stroke-width="0"></g><g id="SVGRepo_tracerCarrier" stroke-linecap="round" stroke-linejoin="round"></g><g id="SVGRepo_iconCarrier"> <path d="M21.7868 21.556C22.8939 21.4433 23.7338 20.505 23.6956 19.3789C23.6575 18.253 22.703 17.3522 21.5577 17.3522H21.4814C20.2978 17.3897 19.3817 18.3656 19.4199 19.5291C19.4581 20.0921 19.6871 20.58 20.0307 20.9178C18.7327 23.4326 16.7475 25.2717 13.7698 26.8106C11.7464 27.8615 9.6468 28.2369 7.54715 27.9742C5.82918 27.749 4.49301 26.9984 3.65301 25.7596C2.43144 23.9205 2.31695 21.9312 3.34773 19.942C4.07312 18.5157 5.21828 17.4647 5.94367 16.9392C5.79098 16.4513 5.56187 15.6256 5.44738 15.0251C-0.0882044 18.9661 0.484491 24.2959 2.16426 26.8106C3.42402 28.6873 5.98187 29.8509 8.80691 29.8509C9.57039 29.8509 10.3339 29.7757 11.0975 29.5882C15.9841 28.6498 19.6872 25.7972 21.7868 21.556ZM28.5059 16.9018C25.6045 13.5613 21.3287 11.7222 16.4421 11.7222H15.8314C15.4878 11.0466 14.7624 10.5961 13.9607 10.5961H13.8843C12.7009 10.6337 11.7848 11.6095 11.8229 12.7731C11.8611 13.8991 12.8154 14.7999 13.9607 14.7999H14.037C14.8769 14.7624 15.6023 14.2369 15.9077 13.5237H16.5948C19.4963 13.5237 22.2449 14.3494 24.7265 15.9634C26.6352 17.202 28.0096 18.816 28.7731 20.7677C29.4221 22.3441 29.3839 23.883 28.6967 25.1967C27.6278 27.1859 25.8336 28.2744 23.4666 28.2744C21.9395 28.2744 20.4889 27.824 19.7253 27.4862C19.3054 27.8615 18.5418 28.462 18.0073 28.8375C19.649 29.5881 21.3287 30.001 22.9321 30.001C26.597 30.001 29.3076 28.0116 30.3384 26.0224C31.4454 23.8454 31.369 20.0921 28.5059 16.9018ZM9.1123 22.1939C9.15051 23.3199 10.1049 24.2206 11.2502 24.2206H11.3266C12.51 24.1832 13.4262 23.2073 13.388 22.0438C13.3499 20.9177 12.3954 20.017 11.2502 20.017H11.1739C11.0975 20.017 10.9829 20.017 10.9067 20.0544C9.3414 17.5022 8.69242 14.7248 8.92152 11.7221C9.0741 9.47006 9.83769 7.51828 11.1739 5.9043C12.2809 4.51555 14.4188 3.83996 15.8696 3.80252C19.9162 3.7274 21.634 8.68179 21.7486 10.6711C22.2449 10.7837 23.0848 11.0465 23.6575 11.2342C23.1993 5.15382 19.3817 2.00098 15.7169 2.00098C12.2809 2.00098 9.1123 4.44067 7.85242 8.04387C6.09637 12.8481 7.24164 17.4647 9.37949 21.1055C9.18871 21.3682 9.0741 21.7811 9.1123 22.194V22.1939Z" fill="#764ABC"></path> </g></svg>
    </symbol> 

    <!-- Nodejs -->
    <symbol id="nodejs" viewBox="0 0 32 32">
      <svg viewBox="-16.5 0 289 289" version="1.1" xmlns="http://www.w3.org/2000/svg" xmlns:xlink="http://www.w3.org/1999/xlink" preserveAspectRatio="xMidYMid" fill="#000000"><g id="SVGRepo_bgCarrier" stroke-width="0"></g><g id="SVGRepo_tracerCarrier" stroke-linecap="round" stroke-linejoin="round"></g><g id="SVGRepo_iconCarrier"> <g> <path d="M127.999999,288.463771 C124.024844,288.463771 120.314699,287.403728 116.869564,285.548656 L81.6231884,264.612838 C76.32298,261.697724 78.9730854,260.637682 80.5631458,260.107661 C87.7184259,257.72257 89.0434775,257.192547 96.4637688,252.952381 C97.2587979,252.422361 98.3188405,252.687372 99.1138718,253.217392 L126.144927,269.383024 C127.20497,269.913045 128.530021,269.913045 129.325053,269.383024 L235.064182,208.165634 C236.124225,207.635611 236.654245,206.575571 236.654245,205.250519 L236.654245,83.0807467 C236.654245,81.7556929 236.124225,80.6956526 235.064182,80.1656324 L129.325053,19.2132506 C128.26501,18.6832305 126.939959,18.6832305 126.144927,19.2132506 L20.4057954,80.1656324 C19.3457551,80.6956526 18.8157349,82.0207041 18.8157349,83.0807467 L18.8157349,205.250519 C18.8157349,206.31056 19.3457551,207.635611 20.4057954,208.165634 L49.2919247,224.861286 C64.9275364,232.811595 74.7329196,223.536234 74.7329196,214.260871 L74.7329196,93.681159 C74.7329196,92.0910985 76.0579711,90.5010358 77.9130428,90.5010358 L91.4285716,90.5010358 C93.0186343,90.5010358 94.6086948,91.8260873 94.6086948,93.681159 L94.6086948,214.260871 C94.6086948,235.196689 83.2132512,247.387164 63.3374737,247.387164 C57.2422362,247.387164 52.4720502,247.387164 38.9565214,240.761906 L11.1304347,224.861286 C4.24016581,220.886129 5.68434189e-14,213.46584 5.68434189e-14,205.515528 L5.68434189e-14,83.3457557 C5.68434189e-14,75.3954465 4.24016581,67.9751552 11.1304347,64.0000006 L116.869564,2.78260752 C123.494824,-0.927535841 132.505176,-0.927535841 139.130436,2.78260752 L244.869565,64.0000006 C251.759834,67.9751552 256,75.3954465 256,83.3457557 L256,205.515528 C256,213.46584 251.759834,220.886129 244.869565,224.861286 L139.130436,286.078676 C135.685299,287.668739 131.710145,288.463771 127.999999,288.463771 L127.999999,288.463771 Z M160.596274,204.455488 C114.219461,204.455488 104.679089,183.254659 104.679089,165.233955 C104.679089,163.643893 106.004141,162.053832 107.859212,162.053832 L121.639752,162.053832 C123.229813,162.053832 124.554864,163.113872 124.554864,164.703935 C126.674947,178.749484 132.770187,185.639753 160.861283,185.639753 C183.122154,185.639753 192.662526,180.604556 192.662526,168.67909 C192.662526,161.788821 190.012423,156.753624 155.296065,153.308489 C126.409938,150.393375 108.389235,144.033126 108.389235,120.977226 C108.389235,99.5113875 126.409938,86.7908901 156.621119,86.7908901 C190.542443,86.7908901 207.238095,98.4513472 209.358178,123.89234 C209.358178,124.687371 209.093167,125.482403 208.563147,126.277434 C208.033127,126.807454 207.238095,127.337474 206.443064,127.337474 L192.662526,127.337474 C191.337475,127.337474 190.012423,126.277434 189.747412,124.952382 C186.567289,110.376813 178.351966,105.606625 156.621119,105.606625 C132.240165,105.606625 129.325053,114.086957 129.325053,120.447205 C129.325053,128.132506 132.770187,130.5176 165.631471,134.757766 C198.227744,138.997931 213.598344,145.093169 213.598344,167.884058 C213.333333,191.20497 194.252589,204.455488 160.596274,204.455488 L160.596274,204.455488 Z" fill="#539E43"> </path> </g> </g></svg>
    </symbol> 

    <!-- astro icon -->
    <symbol id="astro" viewBox="0 0 85 107">
      <path d="M27.5894 91.1365C22.7555 86.7178 21.3444 77.4335 23.3583 70.7072C26.8503 74.948 31.6888 76.2914 36.7005 77.0497C44.4375 78.2199 52.0359 77.7822 59.2232 74.2459C60.0454 73.841 60.8052 73.3027 61.7036 72.7574C62.378 74.714 62.5535 76.6892 62.318 78.6996C61.7452 83.5957 59.3086 87.3778 55.4332 90.2448C53.8835 91.3916 52.2437 92.4167 50.6432 93.4979C45.7262 96.8213 44.3959 100.718 46.2435 106.386C46.2874 106.525 46.3267 106.663 46.426 107C43.9155 105.876 42.0817 104.24 40.6845 102.089C39.2087 99.8193 38.5066 97.3081 38.4696 94.5909C38.4511 93.2686 38.4511 91.9345 38.2733 90.6309C37.8391 87.4527 36.3471 86.0297 33.5364 85.9478C30.6518 85.8636 28.37 87.6469 27.7649 90.4554C27.7187 90.6707 27.6517 90.8837 27.5847 91.1341L27.5894 91.1365Z" fill="#F041FF"/>
      <path d="M0 69.5866C0 69.5866 14.3139 62.6137 28.6678 62.6137L39.4901 29.1204C39.8953 27.5007 41.0783 26.3999 42.4139 26.3999C43.7495 26.3999 44.9325 27.5007 45.3377 29.1204L56.1601 62.6137C73.1601 62.6137 84.8278 69.5866 84.8278 69.5866C84.8278 69.5866 60.5145 3.35233 60.467 3.21944C59.7692 1.2612 58.5911 0 57.0029 0H27.8274C26.2392 0 25.1087 1.2612 24.3634 3.21944C24.3108 3.34983 0 69.5866 0 69.5866Z" fill="currentColor"/>
    </symbol>

    <!-- javascript icon -->
    <symbol id="javascript" viewBox="0 0 630 630">
      <rect width="630" height="630" fill="#f7df1e"/>
      <path fill="black" d="m423.2 492.19c12.69 20.72 29.2 35.95 58.4 35.95 24.53 0 40.2-12.26 40.2-29.2 0-20.3-16.1-27.49-43.1-39.3l-14.8-6.35c-42.72-18.2-71.1-41-71.1-89.2 0-44.4 33.83-78.2 86.7-78.2 37.64 0 64.7 13.1 84.2 47.4l-46.1 29.6c-10.15-18.2-21.1-25.37-38.1-25.37-17.34 0-28.33 11-28.33 25.37 0 17.76 11 24.95 36.4 35.95l14.8 6.34c50.3 21.57 78.7 43.56 78.7 93 0 53.3-41.87 82.5-98.1 82.5-54.98 0-90.5-26.2-107.88-60.54zm-209.13 5.13c9.3 16.5 17.76 30.45 38.1 30.45 19.45 0 31.72-7.61 31.72-37.2v-201.3h59.2v202.1c0 61.3-35.94 89.2-88.4 89.2-47.4 0-74.85-24.53-88.81-54.075z"/>
    </symbol>

    <!-- typescript icon -->
    <symbol id="typescript" fill="none" viewBox="0 0 512 512">
      <rect fill="#3178c6" height="512" rx="50" width="512"/>
      <rect fill="#3178c6" height="512" rx="50" width="512"/>
      <path clip-rule="evenodd" fill="#fff" fill-rule="evenodd" d="m316.939 407.424v50.061c8.138 4.172 17.763 7.3 28.875 9.386s22.823 3.129 35.135 3.129c11.999 0 23.397-1.147 34.196-3.442 10.799-2.294 20.268-6.075 28.406-11.342 8.138-5.266 14.581-12.15 19.328-20.65s7.121-19.007 7.121-31.522c0-9.074-1.356-17.026-4.069-23.857s-6.625-12.906-11.738-18.225c-5.112-5.319-11.242-10.091-18.389-14.315s-15.207-8.213-24.18-11.967c-6.573-2.712-12.468-5.345-17.685-7.9-5.217-2.556-9.651-5.163-13.303-7.822-3.652-2.66-6.469-5.476-8.451-8.448-1.982-2.973-2.974-6.336-2.974-10.091 0-3.441.887-6.544 2.661-9.308s4.278-5.136 7.512-7.118c3.235-1.981 7.199-3.52 11.894-4.615 4.696-1.095 9.912-1.642 15.651-1.642 4.173 0 8.581.313 13.224.938 4.643.626 9.312 1.591 14.008 2.894 4.695 1.304 9.259 2.947 13.694 4.928 4.434 1.982 8.529 4.276 12.285 6.884v-46.776c-7.616-2.92-15.937-5.084-24.962-6.492s-19.381-2.112-31.066-2.112c-11.895 0-23.163 1.278-33.805 3.833s-20.006 6.544-28.093 11.967c-8.086 5.424-14.476 12.333-19.171 20.729-4.695 8.395-7.043 18.433-7.043 30.114 0 14.914 4.304 27.638 12.912 38.172 8.607 10.533 21.675 19.45 39.204 26.751 6.886 2.816 13.303 5.579 19.25 8.291s11.086 5.528 15.415 8.448c4.33 2.92 7.747 6.101 10.252 9.543 2.504 3.441 3.756 7.352 3.756 11.733 0 3.233-.783 6.231-2.348 8.995s-3.939 5.162-7.121 7.196-7.147 3.624-11.894 4.771c-4.748 1.148-10.303 1.721-16.668 1.721-10.851 0-21.597-1.903-32.24-5.71-10.642-3.806-20.502-9.516-29.579-17.13zm-84.159-123.342h64.22v-41.082h-179v41.082h63.906v182.918h50.874z"/>
    </symbol>

    <!-- tailwind icon -->
    <symbol id="tailwind" viewBox="0 0 47 40" fill="none">
      <path fill="#6366f1" d="M23.5 6.5C17.5 6.5 13.75 9.5 12.25 15.5C14.5 12.5 17.125 11.375 20.125 12.125C21.8367 12.5529 23.0601 13.7947 24.4142 15.1692C26.6202 17.4084 29.1734 20 34.75 20C40.75 20 44.5 17 46 11C43.75 14 41.125 15.125 38.125 14.375C36.4133 13.9471 35.1899 12.7053 33.8357 11.3308C31.6297 9.09158 29.0766 6.5 23.5 6.5ZM12.25 20C6.25 20 2.5 23 1 29C3.25 26 5.875 24.875 8.875 25.625C10.5867 26.0529 11.8101 27.2947 13.1642 28.6693C15.3702 30.9084 17.9234 33.5 23.5 33.5C29.5 33.5 33.25 30.5 34.75 24.5C32.5 27.5 29.875 28.625 26.875 27.875C25.1633 27.4471 23.9399 26.2053 22.5858 24.8307C20.3798 22.5916 17.8266 20 12.25 20Z"/>
    </symbol>

    <!-- html icon-->
    <symbol id="html5" viewBox="0 0 360 360">
      <path d="M255.555 70.766l-23.241 260.36-104.47 28.962-104.182-28.922L.445 70.766h255.11z" fill="#E44D26"></path>
      <path d="M128 337.95l84.417-23.403 19.86-222.49H128V337.95z" fill="#F16529"></path>
      <path d="M82.82 155.932H128v-31.937H47.917l.764 8.568 7.85 88.01H128v-31.937H85.739l-2.919-32.704zM90.018 236.542h-32.06l4.474 50.146 65.421 18.16.147-.04V271.58l-.14.037-35.568-9.604-2.274-25.471z" fill="#EBEBEB"></path>
      <path d="M24.18 0h16.23v16.035h14.847V0h16.231v48.558h-16.23v-16.26H40.411v16.26h-16.23V0zM92.83 16.103H78.544V0h44.814v16.103h-14.295v32.455h-16.23V16.103h-.001zM130.47 0h16.923l10.41 17.062L168.203 0h16.93v48.558h-16.164V24.49l-11.166 17.265h-.28L146.35 24.49v24.068h-15.88V0zM193.21 0h16.235v32.508h22.824v16.05h-39.06V0z"></path>
      <path d="M127.89 220.573h39.327l-3.708 41.42-35.62 9.614v33.226l65.473-18.145.48-5.396 7.506-84.08.779-8.576H127.89v31.937zM127.89 155.854v.078h77.143l.64-7.178 1.456-16.191.763-8.568H127.89v31.86z" fill="#FFF"></path>
    </symbol>
    <!-- CSS icon -->

    <symbol id="css3" viewBox="0 0 360 360">
      <path d="M127.843868,360.087912 L23.6617143,331.166242 L0.445186813,70.7657143 L255.554813,70.7657143 L232.31367,331.125451 L127.843868,360.087912 L127.843868,360.087912 Z" fill="#264DE4"> </path> 
      <path d="M212.416703,314.546637 L232.277802,92.0573187 L128,92.0573187 L128,337.950242 L212.416703,314.546637 L212.416703,314.546637 Z" fill="#2965F1"> </path> 
      <path d="M53.6685714,188.636132 L56.530989,220.572835 L128,220.572835 L128,188.636132 L53.6685714,188.636132 L53.6685714,188.636132 Z" fill="#EBEBEB"> </path> 
      <path d="M47.917011,123.994725 L50.8202198,155.932132 L128,155.932132 L128,123.994725 L47.917011,123.994725 L47.917011,123.994725 Z" fill="#EBEBEB"> </path> 
      <path d="M128,271.580132 L127.860044,271.617407 L92.2915165,262.013187 L90.0177582,236.54189 L57.957978,236.54189 L62.4323516,286.687648 L127.853011,304.848879 L128,304.808088 L128,271.580132 L128,271.580132 Z" fill="#EBEBEB"> </path> 
      <path d="M60.4835165,0 L99.1648352,0 L99.1648352,16.1758242 L76.6593407,16.1758242 L76.6593407,32.3516484 L99.1648352,32.3516484 L99.1648352,48.5274725 L60.4835165,48.5274725 L60.4835165,0 L60.4835165,0 Z" fill="#000000"> </path> 
      <path d="M106.901099,0 L145.582418,0 L145.582418,14.0659341 L123.076923,14.0659341 L123.076923,16.8791209 L145.582418,16.8791209 L145.582418,49.2307692 L106.901099,49.2307692 L106.901099,34.4615385 L129.406593,34.4615385 L129.406593,31.6483516 L106.901099,31.6483516 L106.901099,0 L106.901099,0 Z" fill="#000000"> </path> 
      <path d="M153.318681,0 L192,0 L192,14.0659341 L169.494505,14.0659341 L169.494505,16.8791209 L192,16.8791209 L192,49.2307692 L153.318681,49.2307692 L153.318681,34.4615385 L175.824176,34.4615385 L175.824176,31.6483516 L153.318681,31.6483516 L153.318681,0 L153.318681,0 Z" fill="#000000"> </path> 
      <path d="M202.126769,188.636132 L207.892396,123.994725 L127.889582,123.994725 L127.889582,155.932132 L172.892132,155.932132 L169.98611,188.636132 L127.889582,188.636132 L127.889582,220.572835 L167.216527,220.572835 L163.509451,261.992791 L127.889582,271.606857 L127.889582,304.833407 L193.362286,286.687648 L193.842637,281.291956 L201.347516,197.212132 L202.126769,188.636132 L202.126769,188.636132 Z" fill="#FFFFFF"> </path>
    </symbol>


    <!-- Python icon -->
    <symbol id="python" viewBox="0 0 512 512">
      <svg xmlns="http://www.w3.org/2000/svg" xmlns:xlink="http://www.w3.org/1999/xlink" aria-label="Python" role="img" viewBox="0 0 512 512" fill="#000000"><g id="SVGRepo_bgCarrier" stroke-width="0"></g><g id="SVGRepo_tracerCarrier" stroke-linecap="round" stroke-linejoin="round"></g><g id="SVGRepo_iconCarrier"> <rect width="512" height="512" rx="15%" fill="#ffffff"></rect> <g fill="#5a9fd4"> <path id="p" d="M254 64c-16 0-31 1-44 4-39 7-46 21-46 47v35h92v12H130c-27 0-50 16-58 46-8 35-8 57 0 93 7 28 23 47 49 47h32v-42c0-30 26-57 57-57h91c26 0 46-21 46-46v-88c0-24-21-43-46-47-15-3-32-4-47-4zm-50 28c10 0 17 8 17 18 0 9-7 17-17 17-9 0-17-8-17-17 0-10 8-18 17-18z"></path> </g> <use xlink:href="#p" fill="#ffd43b" transform="rotate(180,256,255)"></use> </g></svg>
    </symbol>    


    <!-- C++ icon -->
    <symbol id="c++" viewBox="0 0 32 32">
      <g id="SVGRepo_bgCarrier" stroke-width="0"></g><g id="SVGRepo_tracerCarrier" stroke-linecap="round" stroke-linejoin="round"></g><g id="SVGRepo_iconCarrier"><title>file_type_cpp3</title><path d="M29,10.232a2.387,2.387,0,0,0-.318-1.244,2.451,2.451,0,0,0-.936-.879Q22.552,5.241,17.353,2.376A2.642,2.642,0,0,0,14.59,2.4c-1.378.779-8.275,4.565-10.331,5.706A2.287,2.287,0,0,0,3,10.231V21.77a2.4,2.4,0,0,0,.3,1.22,2.434,2.434,0,0,0,.954.9c2.056,1.141,8.954,4.927,10.332,5.706a2.642,2.642,0,0,0,2.763.026q5.19-2.871,10.386-5.733a2.444,2.444,0,0,0,.955-.9,2.4,2.4,0,0,0,.3-1.22V10.232" style="fill:#659ad2"></path><path d="M28.549,23.171a2.126,2.126,0,0,0,.147-.182,2.4,2.4,0,0,0,.3-1.22V10.232a2.387,2.387,0,0,0-.318-1.244c-.036-.059-.089-.105-.13-.16L16,16Z" style="fill:#00599c"></path><path d="M28.549,23.171,16,16,3.451,23.171a2.435,2.435,0,0,0,.809.72c2.056,1.141,8.954,4.927,10.332,5.706a2.642,2.642,0,0,0,2.763.026q5.19-2.871,10.386-5.733A2.43,2.43,0,0,0,28.549,23.171Z" style="fill:#004482"></path><path d="M19.6,18.02a4.121,4.121,0,1,1-.027-4.087l3.615-2.073A8.309,8.309,0,0,0,7.7,16a8.216,8.216,0,0,0,1.1,4.117A8.319,8.319,0,0,0,23.211,20.1L19.6,18.02" style="fill:#fff"></path><polygon points="24.076 15.538 23.15 15.538 23.15 14.617 22.225 14.617 22.225 15.538 21.299 15.538 21.299 16.461 22.225 16.461 22.225 17.381 23.15 17.381 23.15 16.461 24.076 16.461 24.076 15.538" style="fill:#fff"></polygon><polygon points="27.549 15.538 26.623 15.538 26.623 14.617 25.697 14.617 25.697 15.538 24.771 15.538 24.771 16.461 25.697 16.461 25.697 17.381 26.623 17.381 26.623 16.461 27.549 16.461 27.549 15.538" style="fill:#fff"></polygon></g>
    </symbol>


    <!-- Nextjs -->
    <symbol id="nextjs" viewBox="0 0 24 24">
      <svg viewBox="0 0 24 24" fill="none" xmlns="http://www.w3.org/2000/svg"><g id="SVGRepo_bgCarrier" stroke-width="0"></g><g id="SVGRepo_tracerCarrier" stroke-linecap="round" stroke-linejoin="round"></g><g id="SVGRepo_iconCarrier"> <g clip-path="url(#clip0)"> <path d="M11.2141 0.00645944C11.1625 0.0111515 10.9982 0.0275738 10.8504 0.039304C7.44164 0.346635 4.24868 2.18593 2.22639 5.01291C1.10029 6.58476 0.380059 8.36775 0.107918 10.2563C0.0117302 10.9156 0 11.1103 0 12.0041C0 12.898 0.0117302 13.0927 0.107918 13.7519C0.760117 18.2587 3.96716 22.0452 8.31672 23.4481C9.0956 23.6991 9.91672 23.8704 10.8504 23.9736C11.2141 24.0135 12.7859 24.0135 13.1496 23.9736C14.7613 23.7953 16.1267 23.3965 17.4733 22.7091C17.6798 22.6035 17.7196 22.5754 17.6915 22.5519C17.6727 22.5378 16.793 21.3578 15.7372 19.9314L13.8182 17.339L11.4135 13.7801C10.0903 11.8235 9.00176 10.2235 8.99238 10.2235C8.98299 10.2211 8.97361 11.8024 8.96891 13.7331C8.96188 17.1138 8.95953 17.2499 8.9173 17.3296C8.85631 17.4446 8.80938 17.4915 8.71085 17.5431C8.63578 17.5807 8.57009 17.5877 8.21584 17.5877H7.80997L7.70205 17.5197C7.63167 17.4751 7.58006 17.4164 7.54487 17.3484L7.4956 17.2428L7.50029 12.539L7.50733 7.83285L7.58006 7.74136C7.6176 7.69209 7.69736 7.62875 7.75367 7.59825C7.84985 7.55133 7.88739 7.54664 8.29325 7.54664C8.77185 7.54664 8.85161 7.5654 8.97595 7.70147C9.01114 7.73901 10.3132 9.7003 11.871 12.0628C13.4287 14.4252 15.5589 17.651 16.6053 19.2346L18.5056 22.1132L18.6018 22.0499C19.4534 21.4962 20.3543 20.7079 21.0674 19.8868C22.5853 18.1437 23.5636 16.0182 23.8921 13.7519C23.9883 13.0927 24 12.898 24 12.0041C24 11.1103 23.9883 10.9156 23.8921 10.2563C23.2399 5.74957 20.0328 1.96306 15.6833 0.560125C14.9161 0.311445 14.0997 0.140184 13.1848 0.036958C12.9595 0.0134976 11.4088 -0.0123089 11.2141 0.00645944ZM16.1267 7.26511C16.2393 7.32142 16.3308 7.42933 16.3636 7.54194C16.3824 7.60294 16.3871 8.90734 16.3824 11.8469L16.3754 16.0651L15.6317 14.9249L14.8856 13.7848V10.7185C14.8856 8.73608 14.895 7.62171 14.9091 7.56775C14.9466 7.43637 15.0287 7.33315 15.1413 7.27215C15.2375 7.22288 15.2727 7.21819 15.6411 7.21819C15.9883 7.21819 16.0493 7.22288 16.1267 7.26511Z" fill="#000000"></path> </g> <defs> <clipPath id="clip0"> <rect width="24" height="24" fill="white"></rect> </clipPath> </defs> </g></svg>
    </symbol> 
    
    <!-- Vite -->

    <symbol id="vite" viewBox="0 0 32 32">
      <g id="SVGRepo_bgCarrier" stroke-width="0"/>
      <g id="SVGRepo_tracerCarrier" stroke-linecap="round" stroke-linejoin="round"/>
      <g id="SVGRepo_iconCarrier">
      <path d="M29.8836 6.146L16.7418 29.6457c-.2714.4851-.9684.488-1.2439.0052L2.0956 6.1482c-.3-.5262.1498-1.1635.746-1.057l13.156 2.3516a.7144.7144 0 00.2537-.0004l12.8808-2.3478c.5942-.1083 1.0463.5241.7515 1.0513z" fill="#BD34FE"/>
      <path d="M22.2644 2.0069l-9.7253 1.9056a.3571.3571 0 00-.2879.3294l-.5982 10.1038c-.014.238.2045.4227.4367.3691l2.7077-.6248c.2534-.0585.4823.1647.4302.4194l-.8044 3.9393c-.0542.265.1947.4918.4536.4132l1.6724-.5082c.2593-.0787.5084.1487.4536.414l-1.2784 6.1877c-.08.387.4348.598.6495.2662L16.5173 25 24.442 9.1848c.1327-.2648-.096-.5667-.387-.5106l-2.787.5379c-.262.0505-.4848-.1934-.4109-.4497l1.8191-6.306c.074-.2568-.1496-.5009-.4118-.4495z" fill="#FFDD35"/>
    </symbol> 

  </defs>
</svg>